<svg width="46" height="46" viewBox="0 0 46 46" fill="none" xmlns="http://www.w3.org/2000/svg">
<g clip-path="url(#clip0)">
<path d="M36.5664 3.68359H9.43359C4.23178 3.68359 0 7.91537 0 13.1172V28.2959C0 33.4977 4.23178 37.7295 9.43359 37.7295H10.8335L14.1146 41.8921C14.3704 42.2164 14.7603 42.4055 15.1731 42.4055C15.5858 42.4055 15.976 42.2164 16.2315 41.8921L19.5126 37.7295H36.5664C41.7682 37.7295 46 33.4977 46 28.2959V13.1172C46 7.91537 41.7682 3.68359 36.5664 3.68359V3.68359Z" fill="#6787F5"/>
<path d="M36.5664 3.68359H23V37.7295H36.5664C41.7682 37.7295 46 33.4977 46 28.2959V13.1172C46 7.91537 41.7682 3.68359 36.5664 3.68359Z" fill="#38478A"/>
<path d="M17.947 39.7159L19.5126 37.7295L17.947 39.7159Z" fill="white"/>
<path d="M46 14.7572H34.6688L43.1036 6.3224C41.4067 4.68942 39.102 3.68359 36.5664 3.68359H34.3073L28.9514 9.03947V3.68359H17.0489V9.03947L11.693 3.68359H9.43359C6.89796 3.68359 4.59326 4.68942 2.89641 6.3224L11.3312 14.7572H0V26.6597H11.3312L3.21297 34.7776L2.89816 35.0924C4.59502 36.7247 6.89902 37.7295 9.43359 37.7295H10.8335L11.214 38.212L16.9043 32.5213L16.812 37.7295H28.9511V32.3922L34.2708 37.7295H36.5664C39.0901 37.7295 41.3853 36.7335 43.0797 35.1138L42.7625 34.7952L34.6541 26.6597H46V14.7572Z" fill="white"/>
<path d="M46 14.7572H34.6688L43.1036 6.3224C41.4067 4.68942 39.102 3.68359 36.5664 3.68359H34.3073L28.9514 9.03947V3.68359H23V37.7295H28.9511V32.3922L34.2708 37.7295H36.5664C39.0901 37.7295 41.3853 36.7335 43.0797 35.1138L42.7625 34.7952L34.6541 26.6597H46V14.7572Z" fill="#C7D3ED"/>
<path d="M26.2558 17.4525V3.68359H19.7442V17.4525H0V23.9644H19.7442L19.5126 37.7295H26.2558V23.9644H46V17.4525H26.2558Z" fill="#FF337A"/>
<path d="M26.2558 17.4525V3.68359H23V37.7295H26.2558V23.9644H46V17.4525H26.2558Z" fill="#D1005B"/>
<path d="M17.947 15.6553V13.7496L7.99118 3.79379C6.97026 3.95102 6.00269 4.27284 5.11653 4.73083L16.0413 15.6553H17.947Z" fill="#FF337A"/>
<path d="M40.8835 4.73083C39.9973 4.27284 39.0297 3.95102 38.0088 3.79379L28.053 13.7496V15.6553H29.9587L40.8835 4.73083Z" fill="#D1005B"/>
<path d="M5.11899 36.6836C6.00549 37.1413 6.97307 37.4627 7.99434 37.62L17.947 27.667V25.7613H16.0413L5.11899 36.6836Z" fill="#FF337A"/>
<path d="M28.053 25.7613V27.6726L37.9716 37.6249C38.9946 37.4712 39.9647 37.1532 40.8533 36.698L29.9534 25.7613H28.053Z" fill="#D1005B"/>
</g>
<defs>
<clipPath id="clip0">
<rect width="46" height="46" fill="white"/>
</clipPath>
</defs>
</svg>
