<svg width="46" height="46" viewBox="0 0 46 46" fill="none" xmlns="http://www.w3.org/2000/svg">
<path d="M46 19.1816V33.607C46 36.2573 43.8498 38.4136 41.2067 38.4136H40.1571L36.0272 43.2741C35.8988 43.4251 35.7112 43.5122 35.5136 43.5122C35.316 43.5122 35.1285 43.4251 35.001 43.2741L30.871 38.4136H22.7809C20.1387 38.4136 17.9884 36.2573 17.9884 33.607V15.0488C17.9884 14.6769 18.2901 14.375 18.6618 14.375H41.2067C43.8498 14.375 46 16.5312 46 19.1816Z" fill="#09EAA3"/>
<path d="M46 19.1816V33.607C46 36.2573 43.8498 38.4136 41.2067 38.4136H40.3331C42.5364 37.9814 44.2045 36.0309 44.2045 33.6968V19.1816C44.2045 16.5312 42.0543 14.375 39.4112 14.375H41.2068C43.8498 14.375 46 16.5312 46 19.1816Z" fill="#14BB87"/>
<path d="M36.9897 12.8926V26.7788C36.9897 29.4292 34.8394 31.5855 32.1971 31.5855H15.129L10.999 36.446C10.8715 36.597 10.6839 36.6841 10.4864 36.6841C10.2889 36.6841 10.1012 36.597 9.97283 36.446L5.8429 31.5855H4.79343C2.15032 31.5855 0 29.4292 0 26.7788V12.8926C0 10.2422 2.15023 8.08594 4.79343 8.08594H32.1972C34.8393 8.08594 36.9897 10.2422 36.9897 12.8926Z" fill="#FF6B81"/>
<path d="M36.9897 12.8926V26.7788C36.9897 29.4292 34.8395 31.5855 32.1972 31.5855H30.4015C33.0437 31.5855 35.1941 29.4292 35.1941 26.7788V12.8926C35.1941 10.2422 33.0438 8.08594 30.4015 8.08594H32.1972C34.8394 8.08594 36.9897 10.2422 36.9897 12.8926Z" fill="#ED2061"/>
<path d="M22.7855 43.0944C22.7855 44.6964 21.4845 46 19.8856 46H2.89989C1.30094 46 0 44.6964 0 43.0944C0 41.4925 1.30094 40.1898 2.89989 40.1898H3.15217L4.66765 38.0964C4.79424 37.9212 4.99711 37.817 5.21264 37.817C5.42899 37.817 5.63195 37.9212 5.75853 38.0964L7.27402 40.1898H19.8855C21.4845 40.1898 22.7855 41.4925 22.7855 43.0944Z" fill="#4DD4F7"/>
<path d="M46 2.90555C46 4.50746 44.6991 5.81019 43.1001 5.81019H41.3045L39.789 7.90355C39.6624 8.07875 39.4595 8.18297 39.244 8.18297C39.0277 8.18297 38.8247 8.07875 38.6981 7.90355L37.1835 5.81019H26.1145C24.5156 5.81019 23.2146 4.50746 23.2146 2.90555C23.2146 1.30363 24.5156 0 26.1145 0H43.1001C44.6991 0 46 1.30363 46 2.90555Z" fill="#FBDF63"/>
<path d="M46 2.90555C46 4.50746 44.6991 5.81019 43.1001 5.81019H41.3045C42.9034 5.81019 44.2044 4.50746 44.2044 2.90555C44.2044 1.30363 42.9034 0 41.3045 0H43.1001C44.6991 0 46 1.30363 46 2.90555Z" fill="#FFA402"/>
<path d="M22.7855 43.0945C22.7855 44.6964 21.4845 46 19.8856 46H18.0899C19.6889 46 20.9898 44.6964 20.9898 43.0945C20.9898 41.4926 19.6889 40.1898 18.0899 40.1898H19.8856C21.4845 40.1898 22.7855 41.4926 22.7855 43.0945Z" fill="#00C2F3"/>
<path d="M7.21212 14.476C6.8399 14.476 6.5383 14.7776 6.5383 15.1498V21.7181C6.5383 22.0904 6.8399 22.392 7.21212 22.392C7.58435 22.392 7.88595 22.0904 7.88595 21.7181V15.1498C7.88595 14.7777 7.58426 14.476 7.21212 14.476Z" fill="white"/>
<path d="M13.4745 17.6778C13.8467 17.6778 14.1483 17.3762 14.1483 17.004C14.1483 16.6318 13.8467 16.3301 13.4745 16.3301H12.7324V15.1498C12.7324 14.7776 12.4308 14.476 12.0586 14.476C11.6863 14.476 11.3847 14.7776 11.3847 15.1498V16.3301H10.6425C10.2703 16.3301 9.96871 16.6318 9.96871 17.004V19.8359C9.96871 20.2082 10.2703 20.5098 10.6425 20.5098H12.8007V21.994H10.6425C10.2703 21.994 9.96871 22.2956 9.96871 22.6678C9.96871 23.04 10.2703 23.3416 10.6425 23.3416H11.3847V24.522C11.3847 24.8942 11.6863 25.1958 12.0586 25.1958C12.4308 25.1958 12.7324 24.8942 12.7324 24.522V23.3416H13.4745C13.8467 23.3416 14.1483 23.04 14.1483 22.6678V19.8359C14.1483 19.4637 13.8467 19.1621 13.4745 19.1621H11.3164V17.6778H13.4745Z" fill="white"/>
<path d="M22.9716 16.3302H22.3345L22.4833 15.241C22.5337 14.8723 22.2756 14.5326 21.9069 14.4823C21.5394 14.4304 21.1984 14.6899 21.1481 15.0587L20.9745 16.3302H19.5494L19.6982 15.241C19.7486 14.8723 19.4904 14.5326 19.1217 14.4823C18.7543 14.4304 18.4132 14.6899 18.363 15.0587L18.1893 16.3302H17.1731C16.8009 16.3302 16.4993 16.6318 16.4993 17.004C16.4993 17.3762 16.8009 17.6778 17.1731 17.6778H18.0052L17.4158 21.9939H16.5293C16.157 21.9939 15.8554 22.2955 15.8554 22.6677C15.8554 23.04 16.157 23.3416 16.5293 23.3416H17.2317L17.0977 24.3225C17.0473 24.6912 17.3054 25.0309 17.6742 25.0812C17.7051 25.0855 17.7358 25.0875 17.7662 25.0875C18.0978 25.0875 18.3868 24.8425 18.4329 24.5048L18.5917 23.3416H20.0168L19.8829 24.3225C19.8325 24.6912 20.0906 25.0309 20.4593 25.0812C20.4902 25.0855 20.5209 25.0875 20.5513 25.0875C20.8829 25.0875 21.1719 24.8425 21.218 24.5048L21.3769 23.3416H22.3278C22.7 23.3416 23.0016 23.04 23.0016 22.6677C23.0016 22.2955 22.7 21.9939 22.3278 21.9939H21.561L22.1504 17.6778H22.9716C23.3438 17.6778 23.6454 17.3762 23.6454 17.004C23.6454 16.6318 23.3438 16.3302 22.9716 16.3302ZM20.2008 21.9939H18.7757L19.3652 17.6778H20.7903L20.2008 21.9939Z" fill="white"/>
<path d="M29.0479 19.521C28.4597 19.1482 28.1085 18.5325 28.1085 17.874V17.8454C28.1085 17.4732 27.8069 17.1716 27.4347 17.1716C27.0625 17.1716 26.7609 17.4732 26.7609 17.8454V17.874C26.7609 18.9967 27.3462 20.038 28.3266 20.6593C28.8418 20.986 29.1385 21.568 29.1006 22.1784C29.0495 23.0011 28.3651 23.6854 27.5424 23.7365C27.0746 23.7646 26.6309 23.606 26.2919 23.2873C25.9524 22.9683 25.7655 22.5363 25.7655 22.0707C25.7655 21.6985 25.4639 21.3969 25.0916 21.3969C24.7194 21.3969 24.4178 21.6985 24.4178 22.0707C24.4178 22.8999 24.7644 23.7012 25.3689 24.2694C25.9347 24.801 26.6608 25.0876 27.4315 25.0876C27.496 25.0876 27.5608 25.0856 27.626 25.0816C29.1396 24.9877 30.3517 23.7755 30.4456 22.2619C30.5139 21.161 29.9783 20.1107 29.0479 19.521Z" fill="white"/>
<path d="M7.21202 23.7399C6.83989 23.7399 6.53819 24.0416 6.53819 24.4138C6.53819 24.7859 6.83989 25.0876 7.21202 25.0876C7.58415 25.0876 7.88585 24.7859 7.88585 24.4138C7.88585 24.0416 7.58415 23.7399 7.21202 23.7399Z" fill="white"/>
<path d="M27.4349 15.8233C27.8071 15.8233 28.1088 15.5217 28.1088 15.1495C28.1088 14.7774 27.8071 14.4757 27.4349 14.4757C27.0628 14.4757 26.7611 14.7774 26.7611 15.1495C26.7611 15.5217 27.0628 15.8233 27.4349 15.8233Z" fill="white"/>
</svg>
