<svg width="46" height="46" viewBox="0 0 46 46" fill="none" xmlns="http://www.w3.org/2000/svg">
<g clip-path="url(#clip0)">
<path d="M28.6043 42.1466C29.772 42.1466 30.6573 41.0962 30.4641 39.9446C29.4158 33.697 23.9822 28.9363 17.4366 28.9363C10.891 28.9363 5.45721 33.6969 4.40891 39.9446C4.21566 41.0962 5.10098 42.1466 6.26868 42.1466H28.6043Z" fill="#8EA3E2"/>
<path d="M10.8093 30.7173C7.47824 32.653 5.07043 36.0025 4.40891 39.9446C4.21566 41.0962 5.10098 42.1466 6.26868 42.1466H13.0235C9.91328 38.8387 9.91328 33.1107 10.8093 30.7173Z" fill="#6A96D7"/>
<path d="M18.0622 37.5411C20.1614 36.6872 22.6757 34.1306 23.8017 30.5691C21.9137 29.5288 19.7444 28.9363 17.4365 28.9363C15.1286 28.9363 12.9592 29.5288 11.0714 30.5691C12.1973 34.1306 14.7115 36.6872 16.8108 37.5411C17.2122 37.7045 17.6608 37.7045 18.0622 37.5411Z" fill="#FBF1CF"/>
<path d="M34.873 22.3349C34.873 19.9192 32.5086 17.9609 30.1345 17.9609C27.7605 17.9609 25.836 19.9192 25.836 22.3349C25.836 24.7505 27.6505 26.7088 30.0246 26.7088C32.3986 26.7087 34.873 24.7505 34.873 22.3349Z" fill="#FFBE9D"/>
<path d="M0 22.3349C0 19.9192 2.36442 17.9609 4.73845 17.9609C7.11248 17.9609 9.03702 19.9192 9.03702 22.3349C9.03702 24.7505 7.22245 26.7088 4.84842 26.7088C2.47439 26.7088 0 24.7505 0 22.3349H0Z" fill="#FFBE9D"/>
<path d="M31.0237 22.3349C31.0237 29.1611 24.9405 33.9251 17.4365 33.9251C9.93259 33.9251 3.84927 29.1611 3.84927 22.3349C3.84927 15.5086 9.9325 9.97479 17.4364 9.97479C24.9404 9.97479 31.0237 15.5085 31.0237 22.3349Z" fill="#FFD3BD"/>
<path d="M22.0881 12.1286C22.0881 13.8765 24.6159 19.2975 29.4418 19.5035C30.4147 19.545 31.1973 18.7162 31.1086 17.7465C30.8953 15.4131 29.5511 11.4405 24.7387 10.2842L22.0881 12.1286Z" fill="#4E5660"/>
<path d="M12.7849 12.1286C12.7849 13.8765 10.257 19.2975 5.43114 19.5035C4.45822 19.545 3.67568 18.7162 3.76435 17.7465C3.97764 15.4131 5.32189 11.4405 10.1343 10.2842L12.7849 12.1286Z" fill="#4E5660"/>
<path d="M5.06339 13.8235C5.99246 15.6799 7.75996 16.9436 9.67506 17.7238C11.7273 15.9251 12.7848 13.259 12.7848 12.1286L10.1342 10.2842C7.5888 10.8957 6.01411 12.2954 5.06339 13.8235Z" fill="#404656"/>
<path d="M24.7388 10.2841L22.0881 12.1285C22.0881 13.0112 22.7333 14.8307 23.9931 16.4423C25.6463 15.4737 26.7029 14.6547 28.449 14.2864C28.9247 14.186 29.3651 13.9973 29.7555 13.7397C28.7996 12.2445 27.2375 10.8845 24.7388 10.2841Z" fill="#404656"/>
<path d="M7.18678 11.0375C7.18678 6.28166 20.98 2.96122 28.3623 9.85601C28.9551 10.4096 28.6697 11.4021 27.876 11.5695C23.7596 12.4378 22.597 15.1321 17.3867 15.9361C13.2132 16.5801 7.18678 14.8405 7.18678 11.0375Z" fill="#4E5660"/>
<path d="M36.2794 3.85339C30.9109 3.85339 26.5588 7.10178 26.5588 11.1088C26.5588 12.8014 27.3354 14.3586 28.6369 15.5927C28.7283 15.6793 28.7708 15.8049 28.748 15.9287C28.5957 16.7525 28.3315 17.7314 27.9441 18.5207C27.615 19.1913 28.1637 19.9613 28.9045 19.8652C30.3535 19.6771 31.6921 19.179 32.8314 18.0814C32.9242 17.992 33.0547 17.9558 33.1797 17.9873C34.1532 18.2316 35.1955 18.3642 36.2794 18.3642C41.6479 18.3642 46 15.1158 46 11.1088C46 7.10178 41.6479 3.85339 36.2794 3.85339Z" fill="#FBF1CF"/>
<path d="M39.3637 13.5456H33.1951C32.8229 13.5456 32.5212 13.2439 32.5212 12.8718C32.5212 12.4997 32.8229 12.198 33.1951 12.198H39.3637C39.7358 12.198 40.0375 12.4997 40.0375 12.8718C40.0375 13.2439 39.7358 13.5456 39.3637 13.5456Z" fill="#89D47F"/>
<path d="M40.8301 10.0197H31.7286C31.3565 10.0197 31.0548 9.71802 31.0548 9.34589C31.0548 8.97375 31.3565 8.67206 31.7286 8.67206H40.8302C41.2023 8.67206 41.504 8.97375 41.504 9.34589C41.504 9.71802 41.2023 10.0197 40.8301 10.0197Z" fill="#89D47F"/>
<path d="M10.0649 26.7917C11.5671 26.7917 12.7849 25.8219 12.7849 24.6256C12.7849 23.4294 11.5671 22.4596 10.0649 22.4596C8.56275 22.4596 7.345 23.4294 7.345 24.6256C7.345 25.8219 8.56275 26.7917 10.0649 26.7917Z" fill="#E8899E"/>
<path d="M24.808 26.7917C26.3102 26.7917 27.528 25.8219 27.528 24.6256C27.528 23.4294 26.3102 22.4596 24.808 22.4596C23.3059 22.4596 22.0881 23.4294 22.0881 24.6256C22.0881 25.8219 23.3059 26.7917 24.808 26.7917Z" fill="#E8899E"/>
<path d="M19.6294 22.9614C19.6294 21.6061 18.6476 21.4788 17.4364 21.4788C16.2253 21.4788 15.2434 21.6061 15.2434 22.9614C15.2434 24.3167 16.2252 25.4153 17.4364 25.4153C18.6476 25.4153 19.6294 24.3167 19.6294 22.9614Z" fill="#4E5660"/>
<path d="M10.5196 22.7135C10.1475 22.7135 9.84578 22.4118 9.84578 22.0396V20.929C9.84578 20.5569 10.1475 20.2552 10.5196 20.2552C10.8917 20.2552 11.1934 20.5569 11.1934 20.929V22.0396C11.1934 22.4118 10.8917 22.7135 10.5196 22.7135Z" fill="#4E5660"/>
<path d="M24.3533 22.7135C23.9812 22.7135 23.6795 22.4118 23.6795 22.0396V20.929C23.6795 20.5569 23.9812 20.2552 24.3533 20.2552C24.7254 20.2552 25.0271 20.5569 25.0271 20.929V22.0396C25.0271 22.4118 24.7254 22.7135 24.3533 22.7135Z" fill="#4E5660"/>
</g>
<defs>
<clipPath id="clip0">
<rect width="46" height="46" fill="white"/>
</clipPath>
</defs>
</svg>
